<svg width="182" height="134" viewBox="0 0 182 134" fill="none" xmlns="http://www.w3.org/2000/svg">
<path d="M29.1506 14.4516C29.1506 10.4744 30.5237 7.15997 33.2699 4.50846C36.0161 1.90429 39.3779 0.625884 43.3552 0.673232C47.2851 0.720581 50.5758 2.18838 53.2273 5.07664C55.9262 8.01225 57.2756 11.4213 57.2756 15.3039C57.2756 19.1865 55.9025 22.5009 53.1563 25.2471C50.4101 27.9933 47.143 29.2717 43.3552 29.0823C40.7036 28.9403 38.2889 28.1827 36.1108 26.8096C33.9802 25.4838 32.2756 23.7319 30.9972 21.5539C29.7661 19.3759 29.1506 17.0085 29.1506 14.4516ZM108.554 27.5908C108.554 23.6136 109.927 20.2992 112.673 17.6477C115.467 15.0435 118.829 13.7651 122.759 13.8124C126.688 13.8598 129.979 15.3276 132.631 18.2158C135.33 21.1514 136.679 24.5605 136.679 28.4431C136.679 32.2783 135.306 35.5691 132.56 38.3153C129.861 41.1088 126.594 42.4109 122.759 42.2215C120.154 42.0795 117.763 41.3219 115.585 39.9488C113.455 38.5757 111.75 36.8001 110.472 34.6221C109.193 32.4914 108.554 30.1477 108.554 27.5908ZM90.8693 71.5894C108.672 74.525 125.055 79.5676 140.017 86.7172C154.979 93.8669 168.781 103.005 181.423 114.132V133.592C176.736 129.331 170.983 125.117 164.165 120.95C157.347 116.784 149.866 112.901 141.722 109.302C133.625 105.704 125.221 102.532 116.509 99.7854C107.844 97.0866 99.2974 95.0269 90.8693 93.6064C79.6004 91.7125 68.1894 90.9076 56.6364 91.1917C45.0834 91.5231 34.3589 92.7542 24.4631 94.8849C14.5673 97.0629 6.49437 99.9748 0.24437 103.621V84.0894C12.8864 77.2239 26.6885 72.6784 41.6506 70.453C56.6127 68.2277 73.019 68.6065 90.8693 71.5894Z" fill="#797373"/>
</svg>
